<svg version="1.2" xmlns="http://www.w3.org/2000/svg" viewBox="0 0 1280 720" width="1284" height="722" preserveAspectRatio="xMidYMid meet">
  <style>.a{fill:turquoise}</style>
  <path fill-rule="evenodd" class="a" d="m582.3 565c0 15.6-6 30.2-17 41.2-11.1 11.1-25.7 17.1-41.2 17.1h-0.6c-32.5-0.4-57.8-26.1-57.6-58.5 0.1-32 26.2-57.9 58.1-57.9 32.2 0.1 58.2 26.2 58.3 58.1zm-35.5-22.5c-6.1-6.2-14.3-9.7-22.5-9.7h-0.6c-17.8 0.4-31.7 14.6-31.7 32.3 0 18.1 13.6 31.9 31.6 32.1 18.5 0 32.8-14.1 32.9-32 0-8.3-3.5-16.6-9.7-22.7z"/>
  <path fill-rule="evenodd" class="a" d="m506 663.6c0 11.3-4.4 21.9-12.4 29.9-8 8-18.5 12.4-29.8 12.4h-0.5c-23.5-0.3-41.8-18.9-41.7-42.4 0.1-23.2 19-42 42.1-42 23.3 0.1 42.2 19 42.3 42.1zm-27.8-14.3c-3.9-3.9-9.1-6.1-14.3-6.1h-0.4c-11.2 0.2-20.1 9.2-20.1 20.5 0 11.5 8.6 20.3 20.1 20.4 11.6 0 20.8-9 20.9-20.4 0-5.2-2.3-10.4-6.2-14.4z"/>
  <path fill-rule="evenodd" class="a" d="m1006.6 339c0 73.8-60.1 133.9-133.9 133.9h-510.2c-68.7 0-124.7-56-124.7-124.7 0-32.7 13.5-64.8 37-88.3-3.7-12-5.6-24.3-5.6-36.7 0-71.7 58.2-130.1 129.7-130.1 1.2 0 2.5 0 3.8 0.2 17.2-47.7 64.1-79.6 117.4-79.6 44.1 0 84.8 21.8 106.6 57 24.2-5 50.7-2.1 72.9 7.8 30.2-37.2 75.7-58.5 125.1-58.5 90.1 0 163.5 73.5 163.5 164 0 23.9-5.2 47.2-15.1 67.3 21.6 24.2 33.5 55.2 33.5 87.7zm-45.5 0c0-18.2-5.4-35.3-15.6-49.5-4.5-6.8-9.5-12.3-15.1-16.8-5.2-4.7-10-8.1-15.1-10.6l-2.2-1.1 1.7-1.8c3.6-4 7.2-9 11-15.2 3.9-6.3 6.8-12.6 9.9-20.2 4.7-13.1 7-26.2 7-39.8 0-65.4-53-118.5-118-118.5-34.5 0-67 14.7-89.3 40.3-3.6 4.4-6.9 9.3-10.1 14.1l-0.2 0.3c-5.2 7.9-9.2 16.1-11.5 23.8l-1.1 3.9-2.2-3.4c-4.7-7.2-10.4-13.2-17.1-17.9-5.6-3.9-10.9-6.6-16.6-8.6-8.7-3-17.2-4.5-26.2-4.5-3.1 0-6.3 0.4-9.4 0.8l-0.4 0.1c-10.1 1.2-19.9 4.4-28.5 9.3-6.7 4.3-11.4 8.3-15 12.6l-4.7 5.7 1.5-7.3c0.3-1.9 0.3-3.4 0.3-5.5 0-3.1-0.3-6-0.7-9-0.2-1.6-0.4-3.3-0.5-5-1.9-8-5.8-16.1-11.3-23.3-13.9-18.1-37-28.9-61.6-28.9-31.1 0-59.3 17.2-70.2 42.7-3.2 7.2-4.8 15.3-4.8 23.5 0.4 9.1 2.1 17 5.2 23.5l3.1 6.4-5.9-4.1c-8.4-6.1-18.6-10.6-29.4-13.1-6.9-1.7-12.6-2.4-19.2-2.4h-0.8c-45.5 0.4-82.6 37.9-82.6 83.7 0 4 0.4 8.2 0.8 12.2 1.3 7.4 3.3 14.4 6.2 20.9 3.3 7 6.5 12.3 10.1 16.7l1.7 2-2.4 0.9c-5.9 2.4-11.6 5.6-17.5 9.9-5.7 4.1-10.6 9.1-15.5 15.8-10 13.4-15.5 29.9-15.5 46.6 0 43.6 35.5 79.1 79.1 79.1h510.2c48.7 0 88.4-39.6 88.4-88.3z"/>
</svg>